<svg width="11" height="12" viewBox="0 0 11 12" fill="none" xmlns="http://www.w3.org/2000/svg">
<g id="north-star-24">
<path id="Union" d="M5.51127 1.50951C5.51127 1.33106 5.65721 1.1864 5.83723 1.1864C6.01725 1.1864 6.16319 1.33106 6.16319 1.50951V5.25301L8.14208 3.29138C8.26937 3.1652 8.47575 3.1652 8.60305 3.29138C8.73034 3.41756 8.73034 3.62215 8.60305 3.74833L6.62414 5.70997H10.4006C10.5806 5.70997 10.7266 5.85464 10.7266 6.03308C10.7266 6.21153 10.5806 6.3562 10.4006 6.3562H6.62415L8.60305 8.31784C8.73034 8.44402 8.73034 8.6486 8.60305 8.77479C8.47575 8.90097 8.26937 8.90097 8.14208 8.77479L6.16319 6.81316V10.5567C6.16319 10.7351 6.01725 10.8798 5.83723 10.8798C5.65721 10.8798 5.51127 10.7351 5.51127 10.5567V6.81314L3.53237 8.77478C3.40508 8.90096 3.19869 8.90096 3.0714 8.77478C2.94411 8.64859 2.94411 8.44401 3.0714 8.31783L5.05029 6.3562H1.27385C1.09383 6.3562 0.947896 6.21153 0.947896 6.03309C0.947896 5.85464 1.09383 5.70997 1.27385 5.70997H5.05029L3.0714 3.74834C2.9441 3.62216 2.9441 3.41757 3.0714 3.29139C3.19869 3.16521 3.40507 3.16521 3.53237 3.29139L5.51127 5.25303V1.50951Z" fill="#A95454"/>
</g>
</svg>
