<svg width="117" height="16" viewBox="0 0 117 16" fill="none" xmlns="http://www.w3.org/2000/svg">
<g id="Social">
<g id="Twitter Icon">
<path id="Twitter" fill-rule="evenodd" clip-rule="evenodd" d="M109.812 5.43179L109.84 5.90757L109.371 5.84931C107.661 5.62598 106.168 4.86862 104.9 3.59663L104.28 2.96549L104.12 3.43157C103.782 4.47052 103.998 5.56772 104.702 6.30567C105.078 6.71348 104.994 6.77174 104.345 6.529C104.12 6.45132 103.923 6.39306 103.904 6.42219C103.838 6.49016 104.064 7.37375 104.242 7.7233C104.486 8.2088 104.984 8.68458 105.529 8.96616L105.989 9.18949L105.444 9.1992C104.918 9.1992 104.9 9.20891 104.956 9.41281C105.144 10.044 105.886 10.7139 106.712 11.0052L107.295 11.2091L106.788 11.5198C106.036 11.9665 105.153 12.2189 104.27 12.2384C103.848 12.2481 103.5 12.2869 103.5 12.316C103.5 12.4131 104.646 12.9569 105.313 13.1705C107.314 13.8016 109.69 13.5298 111.475 12.452C112.743 11.6849 114.011 10.1605 114.603 8.68458C114.922 7.89808 115.242 6.46103 115.242 5.77163C115.242 5.32498 115.27 5.26672 115.796 4.73268C116.106 4.42197 116.397 4.08212 116.453 3.98502C116.547 3.80054 116.538 3.80054 116.059 3.9656C115.26 4.2569 115.148 4.21806 115.542 3.78112C115.833 3.4704 116.181 2.90724 116.181 2.74217C116.181 2.71304 116.04 2.76159 115.88 2.84898C115.711 2.94607 115.335 3.09172 115.054 3.17911L114.546 3.34418L114.086 3.02375C113.833 2.84898 113.476 2.65478 113.288 2.59652C112.809 2.46058 112.076 2.48 111.644 2.63536C110.47 3.0723 109.728 4.19864 109.812 5.43179Z" fill="#1F1F1F"/>
</g>
<g id="Linkedin Icon">
<g id="Group 14">
<path id="Shape" fill-rule="evenodd" clip-rule="evenodd" d="M53.5 14.5056H50.5V5.50562H53.5V14.5056Z" fill="#1F1F1F"/>
<path id="Shape_2" fill-rule="evenodd" clip-rule="evenodd" d="M51.9911 3.50562H51.974C51.0788 3.50562 50.5 2.83864 50.5 2.0051C50.5 1.15392 51.0964 0.505615 52.0087 0.505615C52.9209 0.505615 53.4827 1.15392 53.5 2.0051C53.5 2.83864 52.9209 3.50562 51.9911 3.50562Z" fill="#1F1F1F"/>
<path id="Shape_3" fill-rule="evenodd" clip-rule="evenodd" d="M64.4999 14.5054H61.5519V9.80097C61.5519 8.61932 61.1253 7.813 60.0581 7.813C59.2437 7.813 58.7586 8.35658 58.5455 8.8816C58.4675 9.06976 58.4484 9.33192 58.4484 9.59472V14.5056H55.5C55.5 14.5056 55.5389 6.53745 55.5 5.71233H58.4484V6.95783C58.8397 6.3591 59.5405 5.50562 61.1057 5.50562C63.0456 5.50562 64.5 6.76267 64.5 9.46358L64.4999 14.5054Z" fill="#1F1F1F"/>
</g>
</g>
<g id="Facebook Icon">
<path id="Shape_4" fill-rule="evenodd" clip-rule="evenodd" d="M2.05073 15.5056V8.00503H0.5V5.42019H2.05073V3.86825C2.05073 1.75954 2.92638 0.505615 5.41418 0.505615H7.48534V3.09075H6.19072C5.22228 3.09075 5.15821 3.45199 5.15821 4.12615L5.15469 5.41989H7.5L7.22556 8.00474H5.15469V15.5056H2.05073Z" fill="#1F1F1F"/>
</g>
</g>
</svg>
