<svg width="18" height="17" viewBox="0 0 18 17" fill="none" xmlns="http://www.w3.org/2000/svg">
<g id="three-bars">
<path id="Vector" fill-rule="evenodd" clip-rule="evenodd" d="M2.02148 3.62987C2.02148 3.43174 2.10566 3.24172 2.25548 3.10162C2.40531 2.96152 2.60852 2.88281 2.8204 2.88281H16.1357C16.3475 2.88281 16.5508 2.96152 16.7006 3.10162C16.8504 3.24172 16.9346 3.43174 16.9346 3.62987C16.9346 3.828 16.8504 4.01803 16.7006 4.15813C16.5508 4.29822 16.3475 4.37693 16.1357 4.37693H2.8204C2.60852 4.37693 2.40531 4.29822 2.25548 4.15813C2.10566 4.01803 2.02148 3.828 2.02148 3.62987ZM2.02148 8.61028C2.02148 8.41215 2.10566 8.22213 2.25548 8.08203C2.40531 7.94193 2.60852 7.86322 2.8204 7.86322H16.1357C16.3475 7.86322 16.5508 7.94193 16.7006 8.08203C16.8504 8.22213 16.9346 8.41215 16.9346 8.61028C16.9346 8.80841 16.8504 8.99843 16.7006 9.13853C16.5508 9.27863 16.3475 9.35734 16.1357 9.35734H2.8204C2.60852 9.35734 2.40531 9.27863 2.25548 9.13853C2.10566 8.99843 2.02148 8.80841 2.02148 8.61028ZM2.8204 12.8436C2.60852 12.8436 2.40531 12.9223 2.25548 13.0625C2.10566 13.2025 2.02148 13.3926 2.02148 13.5907C2.02148 13.7888 2.10566 13.9789 2.25548 14.1189C2.40531 14.2591 2.60852 14.3377 2.8204 14.3377H16.1357C16.3475 14.3377 16.5508 14.2591 16.7006 14.1189C16.8504 13.9789 16.9346 13.7888 16.9346 13.5907C16.9346 13.3926 16.8504 13.2025 16.7006 13.0625C16.5508 12.9223 16.3475 12.8436 16.1357 12.8436H2.8204Z" fill="#1F1F1F"/>
</g>
</svg>
